<?xml version="1.0" encoding="UTF-8" standalone="no"?>
<!-- Created with Inkscape (http://www.inkscape.org/) -->

<svg
   xmlns:dc="http://purl.org/dc/elements/1.1/"
   xmlns:cc="http://creativecommons.org/ns#"
   xmlns:rdf="http://www.w3.org/1999/02/22-rdf-syntax-ns#"
   xmlns:svg="http://www.w3.org/2000/svg"
   xmlns="http://www.w3.org/2000/svg"
   xmlns:sodipodi="http://sodipodi.sourceforge.net/DTD/sodipodi-0.dtd"
   xmlns:inkscape="http://www.inkscape.org/namespaces/inkscape"
   width="64px"
   height="64px"
   id="svg3759"
   version="1.1"
   inkscape:version="0.48.3.1 r9886"
   sodipodi:docname="share-icon.svg"
   inkscape:export-filename="/home/jens/sb-home/korva/data/share-icon.png"
   inkscape:export-xdpi="90"
   inkscape:export-ydpi="90">
  <defs
     id="defs3761" />
  <sodipodi:namedview
     id="base"
     pagecolor="#ffffff"
     bordercolor="#666666"
     borderopacity="1.0"
     inkscape:pageopacity="0.0"
     inkscape:pageshadow="2"
     inkscape:zoom="5.6568542"
     inkscape:cx="34.282178"
     inkscape:cy="24.163971"
     inkscape:current-layer="layer1"
     showgrid="true"
     inkscape:document-units="px"
     inkscape:grid-bbox="true"
     inkscape:window-width="1280"
     inkscape:window-height="746"
     inkscape:window-x="0"
     inkscape:window-y="27"
     inkscape:window-maximized="1" />
  <metadata
     id="metadata3764">
    <rdf:RDF>
      <cc:Work
         rdf:about="">
        <dc:format>image/svg+xml</dc:format>
        <dc:type
           rdf:resource="http://purl.org/dc/dcmitype/StillImage" />
        <dc:title></dc:title>
      </cc:Work>
    </rdf:RDF>
  </metadata>
  <g
     id="layer1"
     inkscape:label="Layer 1"
     inkscape:groupmode="layer">
    <path
       style="fill:#d3d7cf;fill-opacity:1;stroke:none;stroke-width:0.31200000999999999;stroke-linecap:butt;stroke-linejoin:miter;stroke-miterlimit:4;stroke-opacity:1;stroke-dasharray:none"
       d="M 23.5625 20.71875 C 17.076968 20.71875 11.8125 25.938601 11.8125 32.375 C 11.8125 38.811399 17.076968 44.03125 23.5625 44.03125 C 30.048032 44.03125 35.3125 38.811399 35.3125 32.375 C 35.3125 25.938601 30.048032 20.71875 23.5625 20.71875 z M 19.34375 27.5 L 30.71875 32.5 L 19.34375 37.84375 L 19.34375 27.5 z "
       id="path3880" />
    <path
       style="fill:#d3d7cf;fill-opacity:1;stroke:none"
       d="M 37 36.625 C 36.315899 36.645979 35.626843 36.970181 35.21875 37.5625 L 33.5625 40 C 32.909551 40.94771 33.171427 42.185749 34.15625 42.78125 L 36.5625 44.25 C 36.556059 44.377057 36.53125 44.496343 36.53125 44.625 C 36.53125 48.742032 39.882968 52.09375 44 52.09375 C 48.117032 52.09375 51.46875 48.742032 51.46875 44.625 C 51.46875 40.507968 48.117032 37.1875 44 37.1875 C 42.646679 37.1875 41.375259 37.557104 40.28125 38.1875 L 38.1875 36.9375 C 37.818192 36.714187 37.410461 36.612412 37 36.625 z "
       id="path4392-9" />
    <path
       inkscape:connector-curvature="0"
       style="fill:#d3d7cf;fill-opacity:1;stroke:none"
       d="m 33.062164,22.424802 c -0.281934,0.623656 -0.293706,1.38508 0.05887,2.012036 l 1.461067,2.559269 c 0.564114,1.003131 1.79121,1.312251 2.759061,0.689544 l 2.377123,-1.515437 c 0.111305,0.06161 0.207516,0.136377 0.323072,0.192942 3.697755,1.810127 8.181777,0.273389 9.991903,-3.424365 1.810127,-3.697756 0.273389,-8.181778 -3.424366,-9.991904 -3.697756,-1.810128 -8.153712,-0.25965 -9.963838,3.438105 -0.595011,1.215499 -0.82205,2.519941 -0.736854,3.779702 l -2.043255,1.330938 c -0.362944,0.233515 -0.63362,0.554975 -0.80278,0.92917 z"
       id="path4392-9-5" />
  </g>
</svg>
